<?xml version="1.0" encoding="iso-8859-1"?>
<!-- Uploaded to: SVG Repo, www.svgrepo.com, Generator: SVG Repo Mixer Tools -->
<!DOCTYPE svg PUBLIC "-//W3C//DTD SVG 1.1//EN" "http://www.w3.org/Graphics/SVG/1.1/DTD/svg11.dtd">
<svg fill="#000000" version="1.1" id="Capa_1" xmlns="http://www.w3.org/2000/svg" xmlns:xlink="http://www.w3.org/1999/xlink" 
	 width="800px" height="800px" viewBox="0 0 412.293 412.293"
	 xml:space="preserve">
<g>
	<g>
		<path d="M206.146,0C92.477,0,0,92.477,0,206.146c0,113.668,92.477,206.147,206.146,206.147
			c113.668,0,206.147-92.479,206.147-206.147C412.293,92.477,319.814,0,206.146,0z M206.146,366.5
			c-88.419,0-160.354-71.936-160.354-160.354c0-88.42,71.934-160.354,160.354-160.354c88.42,0,160.354,71.934,160.354,160.354
			C366.5,294.564,294.564,366.5,206.146,366.5z"/>
		<path d="M291.908,161.636H120.384c-3.722,0-7.111,2.146-8.702,5.512c-1.591,3.366-1.099,7.347,1.264,10.223l85.762,104.422
			c1.828,2.227,4.558,3.518,7.438,3.518c2.879,0,5.61-1.291,7.438-3.518l85.762-104.422c2.363-2.876,2.855-6.857,1.264-10.223
			C299.02,163.783,295.631,161.636,291.908,161.636z"/>
	</g>
</g>
</svg>